<?xml version="1.0" encoding="UTF-8"?>
<svg id="Layer_1" xmlns="http://www.w3.org/2000/svg" xmlns:xlink="http://www.w3.org/1999/xlink" version="1.1" viewBox="0 0 311.9 278.3">
  <!-- Generator: Adobe Illustrator 29.2.1, SVG Export Plug-In . SVG Version: 2.1.0 Build 116)  -->
  <defs>
    <style>
      .st0 {
        fill: #ee443a;
      }
    </style>
  </defs>
  <g>
    <path class="st0" d="M101.8,52.5c1.3-2.3,3.7-3.7,6.3-3.7h16.2c4,0,7.3-3.3,7.3-7.3V7.3c0-4-3.3-7.3-7.3-7.3h-31c-10.9,0-21,5.8-26.5,15.3L4.1,123.8c-5.5,9.5-5.5,21.1,0,30.6l62.7,108.5c5.5,9.5,15.6,15.3,26.5,15.3h31c4,0,7.3-3.3,7.3-7.3v-34.2c0-4-3.3-7.3-7.3-7.3h-16.2c-2.6,0-5-1.4-6.3-3.7l-46.6-80.8-1.3-2.2c-1.3-2.3-1.3-5,0-7.3l47.9-83h0Z"/>
    <path class="st0" d="M307.9,154.5l-62.7,108.5c-5.5,9.5-15.6,15.3-26.5,15.3h-31c-4,0-7.3-3.3-7.3-7.3v-34.2c0-4,3.3-7.3,7.3-7.3h16.2c2.6,0,5-1.4,6.3-3.7l47.9-83c.7-1.2,1-2.5,1-3.8s-.4-2.4-1-3.5l-47.9-83c-1.3-2.3-3.7-3.7-6.3-3.7h-16.2c-4,0-7.3-3.3-7.3-7.3V7.3c0-4,3.3-7.3,7.3-7.3h31c10.9,0,21,5.8,26.5,15.3l54.6,94.6,3.8,6.6,4.2,7.4c5.5,9.5,5.5,21.1,0,30.6h.1Z"/>
  </g>
  <g>
    <path class="st0" d="M237.1,155.1l-34.5,59.7c-.9,1.5-2.5,2.4-4.2,2.4h-84.6c-1.7,0-3.3-.9-4.2-2.4l-41.9-72.6c-.8-1.3-.1-3,1.3-3.5,19-6.5,49-8.8,88.8,13.3,23.9,13.3,50.9,10,76.2-.3,2.2-.9,4.2,1.4,3,3.5h.1Z"/>
    <circle class="st0" cx="190.2" cy="121.7" r="12.6"/>
    <circle class="st0" cx="144.3" cy="90.3" r="8.1"/>
    <circle class="st0" cx="164" cy="44.6" r="5.8"/>
  </g>
</svg>